<?xml version="1.0" standalone="no"?>
<!DOCTYPE svg PUBLIC "-//W3C//DTD SVG 20010904//EN"
 "http://www.w3.org/TR/2001/REC-SVG-20010904/DTD/svg10.dtd">
<svg version="1.0" xmlns="http://www.w3.org/2000/svg"
 width="350.000000pt" height="350.000000pt" viewBox="0 0 350.000000 350.000000"
 preserveAspectRatio="xMidYMid meet">
<metadata>
Created by potrace 1.14, written by Peter Selinger 2001-2017
</metadata>
<g transform="translate(0.000000,350.000000) scale(0.100000,-0.100000)"
fill="#000000" stroke="none">
<path d="M290 2795 l0 -55 1430 0 1430 0 0 55 0 55 -1430 0 -1430 0 0 -55z"/>
<path d="M294 2573 c3 -27 42 -406 86 -843 44 -437 83 -816 86 -842 l6 -48
183 0 183 0 6 38 c3 20 31 278 61 572 31 294 59 548 63 564 5 20 27 -159 66
-525 32 -305 60 -575 63 -602 l6 -47 172 0 173 0 6 48 c5 39 176 1718 176
1729 0 1 -53 3 -119 3 l-119 0 -6 -52 c-3 -29 -31 -330 -61 -668 -30 -338 -57
-622 -59 -630 -1 -8 -6 1 -9 20 -7 36 -127 1281 -127 1313 0 15 -14 17 -155
17 -117 0 -155 -3 -155 -12 -1 -44 -130 -1342 -135 -1346 -3 -3 -5 2 -5 11 0
10 -27 310 -60 668 -33 358 -60 657 -60 665 0 11 -25 14 -136 14 l-136 0 6
-47z"/>
<path d="M1775 2598 c5 -23 265 -1740 265 -1752 0 -3 83 -6 185 -6 183 0 185
0 190 22 5 23 265 1740 265 1752 0 4 -57 5 -127 4 l-128 -3 -90 -682 c-49
-376 -92 -683 -95 -683 -3 0 -46 307 -95 683 l-91 682 -142 3 -143 3 6 -23z"/>
<path d="M2870 1730 l0 -890 135 0 135 0 0 890 0 890 -135 0 -135 0 0 -890z"/>
<path d="M290 685 l0 -55 1430 0 1430 0 0 55 0 55 -1430 0 -1430 0 0 -55z"/>
</g>
</svg>
